<svg width="126" height="36" viewBox="0 0 126 36" fill="none" xmlns="http://www.w3.org/2000/svg">
<rect width="126" height="36" fill="black"/>
<path d="M19.46 21.08C19.46 22.6 18.38 23.5 16.58 23.5H13.36V18.58H16.52C18.3 18.58 19.46 19.54 19.46 21.08ZM19.1 14.82C19.1 16.24 18.12 17.08 16.42 17.08H13.36V12.56H16.38C18.16 12.56 19.1 13.44 19.1 14.82ZM21.28 21.26C21.28 19.54 20.04 18.08 18.52 17.82C19.86 17.38 20.96 16.36 20.96 14.6C20.96 12.66 19.48 11.06 16.54 11.06H11.54V25H16.74C19.62 25 21.28 23.36 21.28 21.26ZM29.4256 23.08L25.0456 11.06H23.1056L28.3656 25H30.4656L35.7256 11.06H33.8056L29.4256 23.08ZM38.1212 11.06V25H44.8212V23.52H39.9412V11.06H38.1212ZM56.0741 25H57.8941V11.06H56.0741V17.18H48.9741V11.06H47.1541V25H48.9741V18.68H56.0741V25ZM70.7422 25H72.6622L67.6422 11.14H65.5422L60.5022 25H62.4222L63.5422 21.9H69.6222L70.7422 25ZM69.1022 20.42H64.0622L66.5822 13.38L69.1022 20.42ZM82.8188 25H85.1988L78.8188 18.04L85.1388 11.06H82.8388L77.0788 17.52V11.06H75.2588V25H77.0788V18.64L82.8188 25ZM100.951 18.02C100.951 13.84 97.8914 10.9 93.9514 10.9C90.0314 10.9 86.9514 13.84 86.9514 18.02C86.9514 22.2 90.0314 25.14 93.9514 25.14C97.8914 25.14 100.951 22.2 100.951 18.02ZM88.8114 18.02C88.8114 14.6 91.0114 12.48 93.9514 12.48C96.8914 12.48 99.0914 14.6 99.0914 18.02C99.0914 21.42 96.8914 23.56 93.9514 23.56C91.0114 23.56 88.8114 21.42 88.8114 18.02ZM108.974 23.08L104.594 11.06H102.654L107.914 25H110.014L115.274 11.06H113.354L108.974 23.08Z" fill="white"/>
</svg>
